<mxfile host="Electron" agent="Mozilla/5.0 (Macintosh; Intel Mac OS X 10_15_7) AppleWebKit/537.36 (KHTML, like Gecko) draw.io/26.1.1 Chrome/132.0.6834.210 Electron/34.3.3 Safari/537.36" version="26.1.1">
  <diagram name="Page-1" id="gAj04ulXgt7lpnJpMmYW">
    <mxGraphModel dx="1114" dy="878" grid="1" gridSize="10" guides="1" tooltips="1" connect="1" arrows="1" fold="1" page="1" pageScale="1" pageWidth="827" pageHeight="1169" math="0" shadow="0">
      <root>
        <mxCell id="0" />
        <mxCell id="1" parent="0" />
        <mxCell id="66qWkuMka_GbGoqTuDel-13" value="CoroutineDispatcher&lt;br&gt;Dispatchers.IO" style="rounded=1;whiteSpace=wrap;html=1;fontStyle=1;verticalAlign=top;" vertex="1" parent="1">
          <mxGeometry x="510" y="100" width="230" height="340" as="geometry" />
        </mxCell>
        <mxCell id="66qWkuMka_GbGoqTuDel-1" value="CoroutineDispatcher&lt;br&gt;Dispatchers.IO" style="rounded=1;whiteSpace=wrap;html=1;fontStyle=1;verticalAlign=top;" vertex="1" parent="1">
          <mxGeometry x="250" y="100" width="230" height="250" as="geometry" />
        </mxCell>
        <mxCell id="66qWkuMka_GbGoqTuDel-2" value="작업 대기열" style="rounded=1;whiteSpace=wrap;html=1;fontStyle=1;verticalAlign=top;" vertex="1" parent="1">
          <mxGeometry x="270" y="150" width="190" height="170" as="geometry" />
        </mxCell>
        <mxCell id="66qWkuMka_GbGoqTuDel-3" value="launch 코루틴" style="rounded=0;whiteSpace=wrap;html=1;fillColor=#d5e8d4;strokeColor=none;" vertex="1" parent="1">
          <mxGeometry x="290" y="210" width="150" height="50" as="geometry" />
        </mxCell>
        <mxCell id="66qWkuMka_GbGoqTuDel-4" value="runBlocking 코루틴&lt;div&gt;종료 시까지 실행 대기&lt;/div&gt;" style="text;html=1;align=center;verticalAlign=middle;whiteSpace=wrap;rounded=0;fontColor=#FF3333;" vertex="1" parent="1">
          <mxGeometry x="305" y="256" width="120" height="50" as="geometry" />
        </mxCell>
        <mxCell id="66qWkuMka_GbGoqTuDel-5" value="&lt;div style=&quot;background-color:#ffffff;color:#080808&quot;&gt;&lt;pre style=&quot;font-family:&#39;IBM Plex Mono&#39;,monospace;font-size:9.8pt;&quot;&gt;DefaultDispatcher-&lt;br/&gt;worker-1&lt;/pre&gt;&lt;/div&gt;" style="rounded=1;whiteSpace=wrap;html=1;fontStyle=1;verticalAlign=top;" vertex="1" parent="1">
          <mxGeometry x="530" y="150" width="190" height="130" as="geometry" />
        </mxCell>
        <mxCell id="66qWkuMka_GbGoqTuDel-6" value="runBlocking 코루틴" style="rounded=0;whiteSpace=wrap;html=1;fillColor=#d5e8d4;strokeColor=none;" vertex="1" parent="1">
          <mxGeometry x="550" y="210" width="150" height="50" as="geometry" />
        </mxCell>
        <mxCell id="66qWkuMka_GbGoqTuDel-7" value="" style="endArrow=blockThin;html=1;rounded=0;entryX=0;entryY=0.75;entryDx=0;entryDy=0;endFill=1;" edge="1" parent="1">
          <mxGeometry width="50" height="50" relative="1" as="geometry">
            <mxPoint x="40" y="274" as="sourcePoint" />
            <mxPoint x="250" y="273.5" as="targetPoint" />
          </mxGeometry>
        </mxCell>
        <mxCell id="66qWkuMka_GbGoqTuDel-8" value="launch 코루틴 실행 요청" style="edgeLabel;html=1;align=center;verticalAlign=middle;resizable=0;points=[];" vertex="1" connectable="0" parent="66qWkuMka_GbGoqTuDel-7">
          <mxGeometry x="-0.3333" relative="1" as="geometry">
            <mxPoint x="35" as="offset" />
          </mxGeometry>
        </mxCell>
        <mxCell id="66qWkuMka_GbGoqTuDel-9" style="edgeStyle=orthogonalEdgeStyle;rounded=0;orthogonalLoop=1;jettySize=auto;html=1;entryX=0;entryY=0.5;entryDx=0;entryDy=0;endArrow=block;endFill=1;dashed=1;" edge="1" parent="1" source="66qWkuMka_GbGoqTuDel-10" target="66qWkuMka_GbGoqTuDel-3">
          <mxGeometry relative="1" as="geometry" />
        </mxCell>
        <mxCell id="66qWkuMka_GbGoqTuDel-10" value="launch 코루틴" style="rounded=0;whiteSpace=wrap;html=1;fillColor=#d5e8d4;strokeColor=none;opacity=40;" vertex="1" parent="1">
          <mxGeometry x="70" y="210" width="150" height="50" as="geometry" />
        </mxCell>
        <mxCell id="66qWkuMka_GbGoqTuDel-14" value="&lt;div style=&quot;background-color:#ffffff;color:#080808&quot;&gt;&lt;pre style=&quot;font-family:&#39;IBM Plex Mono&#39;,monospace;font-size:9.8pt;&quot;&gt;DefaultDispatcher-&lt;br&gt;worker-3&lt;/pre&gt;&lt;/div&gt;" style="rounded=1;whiteSpace=wrap;html=1;fontStyle=1;verticalAlign=top;" vertex="1" parent="1">
          <mxGeometry x="530" y="290" width="190" height="130" as="geometry" />
        </mxCell>
        <mxCell id="66qWkuMka_GbGoqTuDel-15" value="launch 코루틴" style="rounded=0;whiteSpace=wrap;html=1;fillColor=#d5e8d4;strokeColor=none;" vertex="1" parent="1">
          <mxGeometry x="550" y="350" width="150" height="50" as="geometry" />
        </mxCell>
        <mxCell id="66qWkuMka_GbGoqTuDel-16" style="edgeStyle=orthogonalEdgeStyle;rounded=0;orthogonalLoop=1;jettySize=auto;html=1;entryX=0;entryY=0.5;entryDx=0;entryDy=0;dashed=1;endArrow=block;endFill=1;strokeWidth=2;" edge="1" parent="1" source="66qWkuMka_GbGoqTuDel-3" target="66qWkuMka_GbGoqTuDel-15">
          <mxGeometry relative="1" as="geometry" />
        </mxCell>
      </root>
    </mxGraphModel>
  </diagram>
</mxfile>
